<svg width="32" height="32" viewBox="0 0 32 32" fill="none" xmlns="http://www.w3.org/2000/svg">
<path d="M20.0003 8C20.0003 7.99415 20.0003 7.98831 20.0003 7.98247C19.9908 5.78139 18.2036 4 16.0003 4C13.7912 4 12.0003 5.79086 12.0003 8C12.0003 9.47403 12.7976 10.7618 13.9845 11.4557L9.34552 19.4082M23.3178 27.4557C23.9098 27.8017 24.5985 28 25.3337 28C27.5428 28 29.3337 26.2091 29.3337 24C29.3337 21.7909 27.5428 20 25.3337 20C24.5985 20 23.9098 20.1983 23.3178 20.5443L18.6789 12.5918M4.66633 20.5355C3.47109 21.2272 2.66699 22.5197 2.66699 24C2.66699 26.2091 4.45785 28 6.66699 28C8.87613 28 10.667 26.2091 10.667 24H20.0003" stroke="currentColor" stroke-opacity="0.5" stroke-width="3" stroke-linecap="round" stroke-linejoin="round"/>
</svg>
